<svg width="74" height="23" viewBox="0 0 74 23" fill="none" xmlns="http://www.w3.org/2000/svg"><rect opacity="0.2" width="74" height="23" rx="2" fill="#57A300"/><path d="M30.8145 7.59766L27.7031 16H26.6191L23.5723 7.59766H24.668L26.9941 14.2598C27.0684 14.4746 27.125 14.7227 27.1641 15.0039H27.1875C27.2188 14.7695 27.2832 14.5176 27.3809 14.248L29.7539 7.59766H30.8145ZM35.9531 13.2402H31.7168C31.7324 13.9082 31.9121 14.4238 32.2559 14.7871C32.5996 15.1504 33.0723 15.332 33.6738 15.332C34.3496 15.332 34.9707 15.1094 35.5371 14.6641V15.5664C35.0098 15.9492 34.3125 16.1406 33.4453 16.1406C32.5977 16.1406 31.9316 15.8691 31.4473 15.3262C30.9629 14.7793 30.7207 14.0117 30.7207 13.0234C30.7207 12.0898 30.9844 11.3301 31.5117 10.7441C32.043 10.1543 32.7012 9.85938 33.4863 9.85938C34.2715 9.85938 34.8789 10.1133 35.3086 10.6211C35.7383 11.1289 35.9531 11.834 35.9531 12.7363V13.2402ZM34.9688 12.4258C34.9648 11.8711 34.8301 11.4395 34.5645 11.1309C34.3027 10.8223 33.9375 10.668 33.4688 10.668C33.0156 10.668 32.6309 10.8301 32.3145 11.1543C31.998 11.4785 31.8027 11.9023 31.7285 12.4258H34.9688ZM40.541 10.9727C40.373 10.8438 40.1309 10.7793 39.8145 10.7793C39.4043 10.7793 39.0605 10.9727 38.7832 11.3594C38.5098 11.7461 38.373 12.2734 38.373 12.9414V16H37.4121V10H38.373V11.2363H38.3965C38.5332 10.8145 38.7422 10.4863 39.0234 10.252C39.3047 10.0137 39.6191 9.89453 39.9668 9.89453C40.2168 9.89453 40.4082 9.92188 40.541 9.97656V10.9727ZM42.0762 8.47656C41.9043 8.47656 41.7578 8.41797 41.6367 8.30078C41.5156 8.18359 41.4551 8.03516 41.4551 7.85547C41.4551 7.67578 41.5156 7.52734 41.6367 7.41016C41.7578 7.28906 41.9043 7.22852 42.0762 7.22852C42.252 7.22852 42.4004 7.28906 42.5215 7.41016C42.6465 7.52734 42.709 7.67578 42.709 7.85547C42.709 8.02734 42.6465 8.17383 42.5215 8.29492C42.4004 8.41602 42.252 8.47656 42.0762 8.47656ZM42.5449 16H41.584V10H42.5449V16ZM47.4551 7.96094C47.2676 7.85547 47.0547 7.80273 46.8164 7.80273C46.1445 7.80273 45.8086 8.22656 45.8086 9.07422V10H47.2148V10.8203H45.8086V16H44.8535V10.8203H43.8281V10H44.8535V9.02734C44.8535 8.39844 45.0352 7.90234 45.3984 7.53906C45.7617 7.17188 46.2148 6.98828 46.7578 6.98828C47.0508 6.98828 47.2832 7.02344 47.4551 7.09375V7.96094ZM48.7441 8.47656C48.5723 8.47656 48.4258 8.41797 48.3047 8.30078C48.1836 8.18359 48.123 8.03516 48.123 7.85547C48.123 7.67578 48.1836 7.52734 48.3047 7.41016C48.4258 7.28906 48.5723 7.22852 48.7441 7.22852C48.9199 7.22852 49.0684 7.28906 49.1895 7.41016C49.3145 7.52734 49.377 7.67578 49.377 7.85547C49.377 8.02734 49.3145 8.17383 49.1895 8.29492C49.0684 8.41602 48.9199 8.47656 48.7441 8.47656ZM49.2129 16H48.252V10H49.2129V16ZM55.9805 13.2402H51.7441C51.7598 13.9082 51.9395 14.4238 52.2832 14.7871C52.627 15.1504 53.0996 15.332 53.7012 15.332C54.377 15.332 54.998 15.1094 55.5645 14.6641V15.5664C55.0371 15.9492 54.3398 16.1406 53.4727 16.1406C52.625 16.1406 51.959 15.8691 51.4746 15.3262C50.9902 14.7793 50.748 14.0117 50.748 13.0234C50.748 12.0898 51.0117 11.3301 51.5391 10.7441C52.0703 10.1543 52.7285 9.85938 53.5137 9.85938C54.2988 9.85938 54.9062 10.1133 55.3359 10.6211C55.7656 11.1289 55.9805 11.834 55.9805 12.7363V13.2402ZM54.9961 12.4258C54.9922 11.8711 54.8574 11.4395 54.5918 11.1309C54.3301 10.8223 53.9648 10.668 53.4961 10.668C53.043 10.668 52.6582 10.8301 52.3418 11.1543C52.0254 11.4785 51.8301 11.9023 51.7559 12.4258H54.9961ZM62.5605 16H61.5996V14.9805H61.5762C61.1309 15.7539 60.4434 16.1406 59.5137 16.1406C58.7598 16.1406 58.1562 15.873 57.7031 15.3379C57.2539 14.7988 57.0293 14.0664 57.0293 13.1406C57.0293 12.1484 57.2793 11.3535 57.7793 10.7559C58.2793 10.1582 58.9453 9.85938 59.7773 9.85938C60.6016 9.85938 61.2012 10.1836 61.5762 10.832H61.5996V7.11719H62.5605V16ZM61.5996 13.2871V12.4023C61.5996 11.918 61.4395 11.5078 61.1191 11.1719C60.7988 10.8359 60.3926 10.668 59.9004 10.668C59.3145 10.668 58.8535 10.8828 58.5176 11.3125C58.1816 11.7422 58.0137 12.3359 58.0137 13.0938C58.0137 13.7852 58.1738 14.332 58.4941 14.7344C58.8184 15.1328 59.252 15.332 59.7949 15.332C60.3301 15.332 60.7637 15.1387 61.0957 14.752C61.4316 14.3652 61.5996 13.877 61.5996 13.2871Z" fill="#57A300"/><path d="M18.025 8.775L11.8 15.075L8.5 11.775L9.025 11.25L11.8 13.95L17.5 8.25L18.025 8.775Z" fill="#57A300"/></svg>
